<svg preserveAspectRatio="none" width="100%" height="100%" overflow="visible" style="display: block;" viewBox="0 0 417.955 75.3703" fill="none" xmlns="http://www.w3.org/2000/svg">
<g id="Vector">
<path d="M406.282 75.3703C412.729 75.3703 417.955 70.1444 417.955 63.6979C417.955 57.2514 412.729 52.0255 406.282 52.0255C399.836 52.0255 394.61 57.2514 394.61 63.6979C394.61 70.1444 399.836 75.3703 406.282 75.3703Z" fill="var(--fill-0, #2CB0A8)"/>
<path fill-rule="evenodd" clip-rule="evenodd" d="M12.093 0.103832H0V73.8066H12.093V27.7912C19.9966 31.7393 24.2469 31.0208 32.9323 31.0208V73.8066H45.0246V31.0208H48.7433C49.9361 31.0208 51.1051 31.1425 52.2389 31.3744C53.4002 31.6127 54.5263 31.9675 55.5998 32.4256C56.6906 32.8913 57.7313 33.4666 58.7073 34.1376C59.6962 34.8169 60.6145 35.5899 61.4449 36.4409C62.2785 37.2988 63.0333 38.2392 63.6932 39.2485C64.3492 40.2484 64.9103 41.3147 65.3637 42.4306C65.81 43.5306 66.157 44.6838 66.3897 45.8737C66.6161 47.0352 66.7347 48.2341 66.7347 49.4564V73.8066H79.201V49.4564C79.201 47.3749 79.0003 45.3409 78.6193 43.376C78.2275 41.3597 77.6439 39.4088 76.8898 37.5504C76.1203 35.6488 75.1706 33.8423 74.0676 32.1556C72.9557 30.4536 71.6763 28.8627 70.2578 27.4091C68.8406 25.9568 67.2881 24.6471 65.6273 23.5072C63.9811 22.3768 62.2189 21.4035 60.3637 20.614C58.5496 19.8423 56.645 19.244 54.677 18.8429C52.7602 18.4526 50.7749 18.2467 48.7433 18.2467H25.5667C24.3502 18.2467 22.3148 17.8799 20.205 16.9225C18.6654 16.2236 17.0744 15.2053 15.7149 13.7809C14.6093 12.622 13.6564 11.1957 13.003 9.45699C12.431 7.93183 12.093 6.17225 12.093 4.15476V0.103832ZM141.462 44.3296C141.462 46.0151 141.326 47.8406 141.055 49.8036L140.994 50.2478L98.7365 50.3783C99.1405 52.3762 99.7914 54.2074 100.687 55.8707C101.673 57.6987 102.956 59.3297 104.534 60.7604C107.679 63.613 111.72 65.0399 116.656 65.0399C119.485 65.0399 122.225 64.535 124.874 63.5269C127.535 62.5143 130.112 60.9923 132.603 58.9621L132.984 58.6523L139.794 65.967L139.441 66.3161C136.499 69.2232 133.078 71.4054 129.182 72.8602C125.297 74.3106 120.943 75.0367 116.123 75.0367C111.79 75.0367 107.851 74.3658 104.312 73.0257C100.764 71.6817 97.6175 69.6642 94.8742 66.9757C92.1308 64.2872 90.0723 61.2286 88.7013 57.8019C87.3322 54.3796 86.6467 50.5913 86.6467 46.4391C86.6467 42.2913 87.3149 38.5148 88.6513 35.1135C89.9903 31.7045 91.9974 28.6769 94.6715 26.0347C97.3456 23.3924 100.397 21.4086 103.824 20.0862C107.244 18.7657 111.033 18.1055 115.188 18.1055C123.16 18.1055 129.533 20.4638 134.304 25.178C136.692 27.5371 138.484 30.3199 139.679 33.5229C140.866 36.7114 141.462 40.3143 141.462 44.3296ZM115.188 28.1023C113.15 28.1023 111.257 28.3906 109.514 28.9634C107.775 29.5362 106.17 30.3992 104.705 31.5487C103.242 32.6974 102.025 34.059 101.057 35.633C100.189 37.0435 99.5176 38.6282 99.045 40.3859H129.921C129.603 38.5743 129.072 36.9503 128.332 35.5164C127.519 33.9387 126.448 32.5897 125.124 31.4713C123.797 30.3504 122.307 29.5083 120.656 28.9475C119 28.3842 117.176 28.1023 115.188 28.1023ZM207 0V73.8066L194.747 73.8072V67.148C192.64 69.59 190.22 71.4662 187.49 72.7759C184.348 74.2834 180.803 75.0367 176.856 75.0367C173.009 75.0367 169.461 74.3569 166.214 73.0003C162.966 71.6424 160.028 69.6085 157.402 66.901C154.773 64.1922 152.8 61.1387 151.485 57.7462C150.173 54.3582 149.515 50.6323 149.515 46.5707C149.515 42.5098 150.173 38.784 151.485 35.3966C152.799 32.0035 154.772 28.9506 157.402 26.2412C160.029 23.5331 162.967 21.4991 166.214 20.1419C169.461 18.7846 173.009 18.1055 176.856 18.1055C180.803 18.1055 184.348 18.8588 187.49 20.3663C190.221 21.676 192.64 23.5521 194.747 25.9935V0H207ZM178.324 63.7214C180.66 63.7214 182.826 63.3266 184.818 62.5397C186.813 61.7514 188.643 60.5658 190.306 58.9887C191.961 57.416 193.205 55.5867 194.033 53.5027C194.865 51.4104 195.281 49.0553 195.281 46.4391C195.281 43.8659 194.865 41.5492 194.035 39.4931C193.208 37.4452 191.965 35.6425 190.307 34.0901C188.643 32.5314 186.825 31.3623 184.854 30.5861C182.884 29.8099 180.751 29.4209 178.458 29.4209C176.121 29.4209 173.965 29.8048 171.993 30.5715C170.022 31.3375 168.226 32.4889 166.61 34.0217C165.001 35.5487 163.791 37.3553 162.984 39.4374C162.174 41.5309 161.768 43.9095 161.768 46.5707C161.768 49.2326 162.174 51.6114 162.984 53.7049C163.79 55.7864 164.999 57.5922 166.61 59.1199C168.229 60.6558 170.014 61.8078 171.962 62.5726C173.909 63.338 176.03 63.7214 178.324 63.7214ZM229.689 44.9886V73.8066H217.436V44.9886C217.436 40.9296 218.048 37.2659 219.27 34.0008C220.496 30.7255 222.337 27.8501 224.792 25.3795C227.246 22.9109 230.088 21.0575 233.315 19.8226C236.536 18.5902 240.135 17.9737 244.11 17.9737C252.083 17.9737 258.502 20.4436 263.363 25.3821C265.795 27.852 267.619 30.7261 268.834 34.0008C270.045 37.2665 270.651 40.9296 270.651 44.9886V73.8066H258.399V44.9886C258.399 42.6252 258.069 40.5051 257.412 38.6301C256.759 36.7673 255.776 35.135 254.468 33.7359C253.163 32.3419 251.651 31.2958 249.933 30.6001C248.21 29.9024 246.268 29.5527 244.11 29.5527C241.955 29.5527 240.006 29.903 238.269 30.6019C236.538 31.2983 235.008 32.345 233.682 33.7396C232.354 35.1368 231.357 36.7691 230.692 38.6338C230.024 40.5094 229.689 42.6283 229.689 44.9886ZM328.419 66.9757C325.675 69.6636 322.564 71.6798 319.085 73.0231C315.61 74.3651 311.77 75.0367 307.57 75.0367C303.37 75.0367 299.537 74.3651 296.073 73.0231C292.602 71.6785 289.506 69.6617 286.787 66.9757C281.349 61.6019 278.629 54.7991 278.629 46.5707C278.629 38.343 281.349 31.5403 286.787 26.1665C289.504 23.4811 292.613 21.4643 296.108 20.1191C299.595 18.7771 303.461 18.1055 307.704 18.1055C316.118 18.1055 323.046 20.7711 328.486 26.1006C331.207 28.7676 333.248 31.7989 334.608 35.192C335.966 38.5807 336.646 42.3306 336.646 46.4391C336.646 50.5913 335.961 54.3796 334.591 57.8019C333.221 61.2279 331.162 64.2866 328.419 66.9757ZM295.738 58.7391C297.31 60.3568 299.092 61.5702 301.081 62.3774C303.07 63.1847 305.28 63.5896 307.704 63.5896C310.127 63.5896 312.33 63.1898 314.313 62.3914C316.29 61.5956 318.055 60.3992 319.604 58.8049C321.154 57.2094 322.319 55.3935 323.094 53.3601C323.871 51.323 324.26 49.059 324.26 46.5707C324.26 44.085 323.866 41.8217 323.077 39.7833C322.291 37.7506 321.111 35.9352 319.539 34.3391C317.968 32.7443 316.186 31.5473 314.196 30.7502C312.203 29.9524 309.994 29.5527 307.57 29.5527C302.736 29.5527 298.767 31.1267 295.668 34.2733C294.118 35.8472 292.955 37.6454 292.18 39.6667C291.403 41.6937 291.015 43.952 291.015 46.4391C291.015 48.9267 291.409 51.1956 292.197 53.2448C292.983 55.2883 294.164 57.1208 295.738 58.7391ZM396.194 18.272C388.751 36.1918 380.67 55.5266 373.247 73.4546H360.143C352.64 55.5412 344.639 36.1982 337.167 18.2727H350.713L366.781 60.27L382.781 18.272H396.194Z" fill="var(--fill-0, #2CB0A8)"/>
</g>
</svg>
