<?xml version="1.0" encoding="UTF-8"?> <svg xmlns="http://www.w3.org/2000/svg" width="452" height="120" viewBox="0 0 452 120" fill="none"><g clip-path="url(#clip0_224_2118)"><path d="M451.207 45.5827C450.149 47.6004 447.478 49.9245 445.413 49.2985C444.254 48.9456 443.295 47.667 443.116 46.3951C442.829 44.3174 444.814 43.4784 445 40.9279C445.074 39.909 444.807 38.697 443.881 37.0455C438.6 27.5893 424.694 32.1776 422.243 42.4062C418.1 59.707 432.919 75.3296 426.365 98.0244C426.006 99.263 425.546 100.522 424.98 101.78C424.98 101.787 424.973 101.794 424.973 101.8C418.886 119.081 397.148 119.847 397.148 119.847C396.195 119.947 395.196 119.993 394.157 119.993C390.927 119.993 388.137 119.487 385.792 118.462C384.54 117.922 383.408 117.23 382.409 116.397C379.612 113.92 378.213 109.925 378.213 104.411V99.0166C378.293 97.2919 378.333 95.2941 378.333 93.03V64.495H369.821V61.8579L373.058 61.3785C375.376 60.9789 377.334 60.2597 378.932 59.2209C380.611 58.182 382.129 56.7436 383.488 54.9057L391.28 44.1176H394.877L394.557 59.0211L394.517 60.7791H408.183V64.495H394.397V105.37C394.397 105.836 394.41 106.289 394.444 106.715V111.616C394.563 112.675 394.963 113.247 395.243 113.554C396.588 115.006 399.259 114.653 402.529 114.22C403.515 114.087 404.314 113.933 404.833 113.827C404.833 113.827 404.847 113.827 404.86 113.827C406.259 113.654 407.357 113.148 407.83 112.908C407.83 112.908 407.85 112.895 407.87 112.888C415.669 109.811 421.19 102.206 421.19 93.3096C421.25 92.1376 421.33 90.1998 421.304 87.8091C421.037 64.0555 410.914 55.212 415.31 40.6415C416.002 38.3507 417.441 33.7891 421.637 30.2863C427.145 25.6848 436.569 23.6138 443.662 28.0688C449.995 32.0444 453.725 40.7547 451.201 45.576L451.207 45.5827Z" fill="white"></path><path d="M340.264 120C336.427 120 332.951 119.56 329.834 118.681C326.797 117.882 323.88 116.724 321.083 115.205V101.061H324.319L327.916 107.893C329.434 110.85 331.153 113.048 333.071 114.486C335.069 115.925 337.586 116.644 340.623 116.644C344.38 116.644 347.377 115.845 349.614 114.246C351.852 112.568 352.971 110.331 352.971 107.534C352.971 104.977 352.132 102.899 350.454 101.301C348.775 99.7025 345.778 98.2242 341.462 96.8657L336.188 95.1876C331.472 93.7492 327.716 91.5916 324.919 88.7148C322.201 85.758 320.843 82.0821 320.843 77.687C320.843 74.2508 321.762 71.1343 323.6 68.3374C325.438 65.4606 328.116 63.1831 331.632 61.505C335.149 59.8269 339.424 58.9878 344.459 58.9878C347.736 58.9878 350.733 59.3873 353.451 60.1865C356.248 60.9057 358.965 61.9445 361.603 63.303L360.883 76.1287H357.766L354.05 69.2963C352.771 66.7392 351.453 64.9811 350.094 64.0222C348.815 62.9834 346.817 62.4639 344.1 62.4639C341.223 62.4639 338.665 63.2231 336.427 64.7414C334.27 66.1798 333.191 68.2175 333.191 70.8546C333.191 73.3319 334.11 75.3696 335.948 76.9678C337.786 78.4861 340.743 79.9245 344.819 81.283L349.974 82.8413C355.808 84.6792 359.964 87.1165 362.442 90.1532C364.919 93.1898 366.158 96.8257 366.158 101.061C366.158 106.735 363.88 111.33 359.325 114.846C354.849 118.282 348.495 120 340.264 120Z" fill="white"></path><path d="M312.884 115.678C311.366 115.199 310.287 114.479 309.647 113.521C309.088 112.562 308.808 111.283 308.808 109.685V77.3208L309.168 60.2997L307.729 58.9811L286.75 65.9334V68.091L288.428 68.4506C290.027 68.7703 291.106 69.4095 291.665 70.3685C292.305 71.2475 292.624 72.4861 292.624 74.0843C292.704 76.3219 292.744 78.5194 292.744 80.677V109.565C292.664 111.163 292.344 112.442 291.785 113.401C291.226 114.36 290.147 115.079 288.548 115.558L286.75 116.038V118.315H314.203V116.038L312.884 115.678ZM307.25 37.1654C305.412 35.4872 303.174 34.6482 300.536 34.6482C297.899 34.6482 295.661 35.4872 293.823 37.1654C291.985 38.7636 291.066 40.8812 291.066 43.5183C291.066 46.1554 291.985 48.1931 293.823 49.8712C295.661 51.5494 297.899 52.3885 300.536 52.3885C303.174 52.3885 305.412 51.5494 307.25 49.8712C309.088 48.1931 310.007 46.0755 310.007 43.5183C310.007 40.9611 309.088 38.7636 307.25 37.1654Z" fill="white"></path><path d="M253.263 118.322V116.044L255.061 115.565C257.698 114.686 259.017 112.688 259.017 109.572V101.421C259.097 98.6237 259.137 95.8668 259.137 93.1498V47.6004C259.137 45.9223 258.857 44.6837 258.298 43.8846C257.738 43.0055 256.659 42.3663 255.061 41.9667L253.263 41.4872V39.2098L274.242 34.1754L275.8 35.2542L275.321 52.1554V109.572C275.401 111.17 275.72 112.488 276.28 113.527C276.919 114.486 277.998 115.165 279.517 115.565L281.195 116.044V118.322H253.263Z" fill="white"></path><path d="M249.113 112.801H246.356C243.079 112.801 241.441 111.083 241.441 107.647V80.9168C241.441 73.1654 239.563 67.5716 235.807 64.1354C232.05 60.6992 226.616 58.9811 219.503 58.9811C215.187 58.9811 211.151 59.5405 207.395 60.6593C203.718 61.778 200.761 63.4562 198.523 65.6937C196.286 67.9312 195.167 70.6881 195.167 73.9645C195.167 75.9623 195.806 77.6005 197.085 78.879C198.443 80.0777 200.122 80.677 202.12 80.677C204.278 80.677 206.076 79.9578 207.514 78.5194C208.953 77.0011 209.792 74.6437 210.032 71.4473L210.392 69.889C210.711 67.2519 211.391 65.374 212.43 64.2553C213.549 63.0566 215.027 62.4573 216.865 62.4573H217.225C220.182 62.4573 222.34 63.4961 223.699 65.5738C225.057 67.6515 225.736 71.4073 225.736 76.8413V85.3518C223.978 85.6715 222.18 85.9911 220.342 86.3108C218.584 86.5505 217.025 86.8302 215.666 87.1498C207.674 88.6682 201.8 91.0655 198.044 94.3419C194.367 97.5383 192.529 101.054 192.529 104.89C192.529 109.765 194.088 113.521 197.205 116.158C200.402 118.715 204.278 119.993 208.833 119.993C212.829 119.993 216.066 119.154 218.544 117.476C221.021 115.798 223.539 113.6 226.096 110.883C226.736 113.6 228.054 115.798 230.052 117.476C232.13 119.074 234.887 119.873 238.324 119.873C241.361 119.873 243.759 119.354 245.517 118.315C247.275 117.356 248.874 115.958 250.312 114.12L249.113 112.801ZM225.736 107.647C223.579 109.325 221.78 110.524 220.342 111.243C218.903 111.962 217.385 112.322 215.786 112.322C213.469 112.322 211.55 111.563 210.032 110.044C208.593 108.446 207.874 106.049 207.874 102.852C207.874 99.1765 208.913 96.2597 210.991 94.1021C213.149 91.9445 215.946 90.4662 219.383 89.667C221.541 89.1876 223.659 88.788 225.736 88.4684V107.647Z" fill="white"></path><path d="M171.018 120C166.062 120 162.146 118.801 159.269 116.404C156.472 113.927 155.073 109.931 155.073 104.417V99.0233C155.153 97.2653 155.193 95.2275 155.193 92.9101V64.5017H146.682V61.8646L149.918 61.3851C152.236 60.9856 154.194 60.2664 155.793 59.2275C157.471 58.1887 158.989 56.7503 160.348 54.9123L168.14 44.1243H171.737L171.377 60.7858H185.044V64.5017H171.257V105.376C171.257 108.253 171.857 110.411 173.056 111.849C174.334 113.287 175.893 114.007 177.731 114.007C179.329 114.007 180.768 113.647 182.047 112.928C183.325 112.129 184.604 111.09 185.883 109.811L187.441 111.609C185.923 114.246 183.805 116.324 181.088 117.842C178.37 119.281 175.014 120 171.018 120Z" fill="white"></path><path d="M144.564 112.801H141.806C138.53 112.801 136.891 111.083 136.891 107.647V80.9168C136.891 73.1654 135.013 67.5716 131.257 64.1354C127.5 60.6992 122.066 58.9811 114.953 58.9811C110.637 58.9811 106.601 59.5405 102.845 60.6593C99.1684 61.778 96.2114 63.4562 93.9736 65.6937C92.2486 67.4184 91.1896 69.4429 90.8034 71.7869C90.6768 72.4861 90.6169 73.212 90.6169 73.9645C90.6169 75.9623 91.2563 77.6005 92.535 78.879C92.868 79.172 93.2143 79.4318 93.5873 79.6515C94.7328 80.3374 96.0582 80.677 97.57 80.677C98.4092 80.677 99.1884 80.5705 99.921 80.3507C101.073 80.0111 102.086 79.3985 102.965 78.5194C103.184 78.2864 103.398 78.0333 103.584 77.7536C104.65 76.2553 105.282 74.151 105.482 71.4473L105.842 69.889C106.162 67.2519 106.841 65.374 107.88 64.2553C108.999 63.0566 110.477 62.4573 112.315 62.4573H112.675C115.632 62.4573 117.79 63.4961 119.149 65.5738C120.507 67.6515 121.187 71.4073 121.187 76.8413V85.3518C119.428 85.6715 117.63 85.9911 115.792 86.3108C114.034 86.5505 112.475 86.8302 111.117 87.1498C103.125 88.6682 97.2503 91.0655 93.494 94.3419C89.8177 97.5383 87.9795 101.054 87.9795 104.89C87.9795 109.765 89.5379 113.521 92.6549 116.158C95.8517 118.715 99.7279 119.993 104.283 119.993C108.279 119.993 111.516 119.154 113.994 117.476C116.471 115.798 118.989 113.6 121.546 110.883C122.186 113.6 123.504 115.798 125.502 117.476C127.58 119.074 130.338 119.873 133.774 119.873C136.811 119.873 139.209 119.354 140.967 118.315C142.725 117.356 144.324 115.958 145.762 114.12L144.564 112.801ZM121.187 107.647C119.029 109.325 117.231 110.524 115.792 111.243C114.353 111.962 112.835 112.322 111.237 112.322C108.919 112.322 107.001 111.563 105.482 110.044C104.044 108.446 103.324 106.049 103.324 102.852C103.324 99.1765 104.363 96.2597 106.441 94.1021C108.599 91.9445 111.396 90.4662 114.833 89.667C116.991 89.1876 119.109 88.788 121.187 88.4684V107.647Z" fill="white"></path><path d="M73.7072 107.174C73.847 107.001 73.9802 106.835 74.1068 106.655C74.2466 106.482 74.3798 106.302 74.5064 106.122C74.6329 105.942 74.7595 105.763 74.886 105.583C75.0725 105.316 75.2456 105.043 75.4188 104.764C75.4721 104.677 75.532 104.59 75.5853 104.497C75.8117 104.118 76.0315 103.738 76.238 103.352C75.4454 104.664 74.6063 105.942 73.7072 107.174ZM40.7664 119.933C41.6655 119.973 42.5713 119.993 43.497 119.993C44.3695 119.993 45.222 119.973 46.0611 119.933H40.7664ZM12.1946 99.0033C11.6551 91.7314 8.41169 85.7314 4.97508 79.3851C3.34336 76.3818 1.685 73.3119 0.273063 70.0289C0.0932412 71.8468 0 73.6981 0 75.596C0 84.2597 1.75826 91.9379 5.28145 98.6171C7.03971 101.947 9.17094 104.923 11.6751 107.534C12.1613 104.877 12.3678 101.381 12.188 99.0033H12.1946Z" fill="white"></path><path d="M77.5104 58.5616C77.2307 58.9878 76.8844 59.3474 76.4714 59.6204C76.0519 59.9068 75.5657 60.1132 75.0195 60.2331C73.8474 60.5194 72.7751 60.4328 71.8027 59.9933C70.8303 59.5472 70.0844 58.7148 69.5583 57.5028C68.7058 55.5383 67.8133 53.7403 66.8809 52.1154C65.8419 50.3041 64.7497 48.6992 63.6108 47.3141C63.3378 46.9745 63.058 46.6482 62.7716 46.3352C62.6984 46.2486 62.6185 46.162 62.5385 46.0821C62.0057 45.5161 61.4729 44.9834 60.9335 44.4839C58.8422 42.5594 56.651 41.1343 54.3666 40.2153C52.0622 39.2897 49.6513 38.737 47.1404 38.5572C46.5144 38.5105 45.8883 38.4906 45.2556 38.4906C43.5839 38.4906 41.9922 38.6903 40.4803 39.0832C39.0284 39.4628 37.6565 40.0289 36.3577 40.768C35.472 41.2808 34.6261 41.8602 33.8203 42.5194C33.5539 42.1665 33.3074 41.7936 33.0743 41.3807C32.7813 40.8812 32.5282 40.3618 32.3018 39.8158C37.0704 39.7492 40.6535 37.6115 43.2509 33.2897C43.8836 32.2309 44.4098 31.2719 44.8027 30.3796C47.3535 30.5194 49.5114 30.859 51.2697 31.3851C53.7006 32.111 55.632 32.8435 57.0706 33.5694C57.4835 33.7825 57.8698 33.9556 58.2428 34.1021C58.5891 34.242 58.9155 34.3552 59.2285 34.4417C59.748 34.5949 60.2142 34.6615 60.6271 34.6615C60.747 34.6615 60.8602 34.6615 60.9734 34.6482C61.9391 34.5882 62.705 34.2686 63.2712 33.6892C63.8972 33.0433 64.5499 32.3907 65.2159 31.7447C65.5223 31.4517 65.8686 31.2253 66.2749 31.0655C66.7544 30.8724 67.3005 30.7725 67.9132 30.7725C68.8057 30.7725 69.5316 31.0455 70.0977 31.5916C70.6638 32.1376 71.15 33.0832 71.5563 34.4151L71.8094 35.2675L77.8701 55.6115C78.1964 56.7037 78.0699 57.6826 77.5038 58.5549L77.5104 58.5616Z" fill="white"></path><path d="M73.7074 107.174C73.8472 107.001 73.9804 106.835 74.107 106.655C74.2468 106.482 74.3801 106.302 74.5066 106.122C74.6331 105.942 74.7597 105.762 74.8862 105.583C75.0727 105.316 75.2459 105.043 75.419 104.764C75.4723 104.677 75.5322 104.59 75.5855 104.497C75.812 104.118 76.0318 103.738 76.2382 103.352C75.4457 104.664 74.6065 105.942 73.7074 107.174ZM40.7666 119.933C41.6657 119.973 42.5715 119.993 43.4972 119.993C44.3697 119.993 45.2222 119.973 46.0614 119.933H40.7666Z" fill="white"></path><path d="M40.2944 30.3197C40.1346 30.5927 39.9681 30.8857 39.7749 31.2053C36.678 36.3663 32.5954 36.2597 27.1474 35.1543C27.2873 37.2786 27.7868 40.3485 29.5717 43.4184C29.9979 44.1576 30.4575 44.8169 30.9437 45.4162C30.4441 46.0222 29.9779 46.6615 29.5251 47.3341C27.6203 50.1909 26.1551 53.6204 25.1227 57.6293C24.0904 61.6382 23.5709 66.1532 23.5709 71.1743C23.5709 79.0721 24.7231 85.7181 27.0342 91.1254C27.174 91.4584 27.3272 91.7914 27.4737 92.1177C27.3339 92.5638 27.214 92.99 27.1074 93.3962C25.9153 97.9245 24.1903 108.792 21.5263 114.999C20.8336 116.617 20.0744 117.916 19.2485 118.708C17.5169 120.366 10.0976 120.606 9.43824 118.455C7.94638 113.547 13.5142 114.093 14.3401 112.562C14.6264 112.042 14.8729 111.41 15.086 110.697C16.1716 107.148 16.458 101.674 16.2382 98.7103C15.1992 84.7991 5.56873 75.5361 1.97228 62.8036L1.73918 61.9645C-1.93053 48.1399 0.427142 35.141 6.86078 22.5749C9.05861 18.2864 11.1033 13.8779 13.3344 9.62931C14.0404 8.29079 20.2209 -1.41842 21.9059 0.193125C22.8849 3.66926 23.8573 7.1454 24.8364 10.6215C25.2027 10.6881 25.569 10.7614 25.9486 10.8413C28.9789 11.4673 32.3756 12.5327 34.8798 14.5039C36.032 15.4096 36.991 16.5083 37.6437 17.8468C38.4629 19.525 38.4229 21.2164 39.1156 22.8546C40.7806 26.8369 42.9584 25.6648 40.3077 30.333L40.2944 30.3197Z" fill="white"></path><path d="M84.9634 74.3374C85.0433 77.6337 86.2488 80.5505 88.4466 82.7947C83.8045 87.3896 80.7875 95.7869 76.2853 103.265C76.2786 103.279 76.2719 103.292 76.2719 103.299H76.2653C76.2653 103.299 76.2586 103.312 76.2586 103.319C76.252 103.332 76.2453 103.339 76.2387 103.352C75.4461 104.664 74.6069 105.942 73.7078 107.174C73.7078 107.174 73.7012 107.181 73.6945 107.188C71.0371 110.81 67.827 113.967 63.6378 115.998C61.673 116.95 59.1822 117.762 56.618 118.215H56.6114C56.4116 118.282 56.2118 118.342 56.012 118.395C55.6057 118.508 55.1928 118.622 54.7732 118.721C54.6267 118.761 54.4802 118.795 54.3336 118.828C54.267 118.848 54.2004 118.855 54.1338 118.875C53.9673 118.915 53.7942 118.948 53.621 118.988C53.3346 119.048 53.0482 119.108 52.7618 119.161C52.6486 119.188 52.5354 119.208 52.4222 119.228C52.3356 119.241 52.2424 119.261 52.1558 119.274C52.1225 119.274 52.0892 119.287 52.0559 119.287C52.0093 119.301 51.9693 119.307 51.9293 119.307C51.7362 119.347 51.5364 119.381 51.3432 119.407C51.2234 119.427 51.1035 119.447 50.9836 119.467C50.9303 119.467 50.877 119.481 50.8238 119.487C50.7771 119.494 50.7305 119.501 50.6772 119.507C50.5107 119.534 50.3442 119.56 50.1711 119.58C49.958 119.607 49.7448 119.634 49.525 119.66H49.4917C49.2853 119.687 49.0788 119.707 48.8724 119.727C48.6393 119.754 48.4061 119.774 48.1797 119.794C47.7535 119.834 47.3206 119.86 46.8877 119.887C46.6146 119.907 46.3415 119.92 46.0618 119.933H24.9427C24.8294 119.933 24.7295 119.907 24.6563 119.86C24.0902 119.521 24.1768 117.922 24.7828 116.531C24.9027 116.257 25.0492 115.998 25.2024 115.745C26.4345 113.853 28.6257 113.367 29.2517 113.228C30.0243 113.054 30.6237 113.054 30.9567 113.054C33.1146 113.061 35.5988 113.054 38.5026 113.054C38.5026 112.835 38.4959 112.608 38.4959 112.382C38.3761 112.322 38.1962 112.242 37.9831 112.129C32.9148 109.538 29.6247 102.759 29.7712 96.2863C30.9168 98.0511 32.2022 99.6093 33.6208 100.961C34.5398 101.84 35.5122 102.626 36.5445 103.319C40.5739 106.055 45.176 107.421 50.3576 107.421C50.9836 107.421 51.5963 107.401 52.2091 107.361C54.8731 107.194 57.3573 106.635 59.675 105.703C60.9005 105.21 62.0793 104.61 63.2115 103.898C65.4893 102.473 67.494 100.655 69.2256 98.4639C69.7317 97.818 70.2179 97.1387 70.6775 96.4329C71.2303 95.5805 71.7431 94.6948 72.2293 93.7558C72.3958 93.4428 72.5689 93.1565 72.7488 92.8968C72.7821 92.8435 72.822 92.7902 72.862 92.7303C72.9552 92.6104 73.0485 92.4839 73.1417 92.3774C73.1883 92.3241 73.235 92.2708 73.2816 92.2242C73.2816 92.2175 73.2882 92.2175 73.2882 92.2109C76.3186 85.5649 79.582 78.2664 84.9634 74.3374Z" fill="white"></path><path d="M52.4217 119.228C52.3351 119.241 52.2419 119.261 52.1553 119.274C52.2219 119.261 52.2951 119.248 52.3617 119.234C52.3817 119.234 52.4017 119.234 52.4217 119.228Z" fill="white"></path><path d="M76.232 103.359C76.0255 103.745 75.8124 104.124 75.5793 104.497C75.526 104.59 75.4728 104.677 75.4128 104.77C75.2397 105.043 75.0665 105.316 74.88 105.583C74.7535 105.762 74.6269 105.949 74.5004 106.122C74.3738 106.302 74.2406 106.482 74.1008 106.655C73.9742 106.828 73.8344 107.001 73.7012 107.168C74.6003 105.942 75.4328 104.664 76.2253 103.352L76.232 103.359Z" fill="white"></path><path d="M34.0602 9.24307C33.7938 10.0755 33.5607 10.6748 33.4275 10.7014L27.5732 8.47725C27.813 8.29745 28.3392 7.89789 29.0052 7.39845C31.1297 5.8202 34.6929 3.2697 35.2523 3.82908C35.4321 4.00888 34.6796 7.27858 34.0602 9.24973V9.24307Z" fill="white"></path></g><defs><clipPath id="clip0_224_2118"><rect width="452" height="120" fill="white"></rect></clipPath></defs></svg> 