<svg preserveAspectRatio="xMidYMid meet" width="100%" height="100%" overflow="visible" style="display: block;" viewBox="0 0 322.158 300.148" fill="none" xmlns="http://www.w3.org/2000/svg">
<g id="Logo full black">
<g id="Vector">
<path fill-rule="evenodd" clip-rule="evenodd" d="M41.2415 0H3.16955e-05V210.103H41.2415V85.7482C52.7063 91.3371 65.3486 92.6202 76.071 92.6202H93.4377V210.103H134.679V92.6202H141.764C154.828 92.6202 166.72 97.985 175.354 106.627C183.988 115.269 189.348 127.172 189.348 140.248V210.103H231.646V140.248C231.646 115.486 221.54 92.9897 205.259 76.6942C188.979 60.3987 166.503 50.2836 141.764 50.2836H76.005C67.1621 50.2836 41.2415 42.8086 41.2415 14.6949V0Z" fill="var(--fill-0, #2CB0A8)"/>
<path d="M291.967 209.608C308.641 209.608 322.158 196.078 322.158 179.389C322.158 162.7 308.641 149.171 291.967 149.171C275.293 149.171 261.776 162.7 261.776 179.389C261.776 196.078 275.293 209.608 291.967 209.608Z" fill="var(--fill-0, #2CB0A8)"/>
</g>
<path id="Vector_2" fill-rule="evenodd" clip-rule="evenodd" d="M9.68052 240.201H0V299.163H9.68052V262.351C16.0074 265.51 19.4098 264.935 26.3624 264.935V299.163H36.0425V264.935H39.0193C39.9741 264.935 40.9099 265.032 41.8175 265.218C42.7472 265.408 43.6486 265.692 44.5079 266.059C45.3811 266.431 46.2142 266.891 46.9955 267.428C47.7871 267.972 48.5222 268.59 49.187 269.271C49.8543 269.957 50.4585 270.71 50.9867 271.517C51.5119 272.317 51.9611 273.17 52.324 274.063C52.6813 274.943 52.959 275.865 53.1453 276.817C53.3265 277.746 53.4215 278.705 53.4215 279.683V299.163H63.4008V279.683C63.4008 278.018 63.2401 276.391 62.9352 274.819C62.6215 273.206 62.1544 271.645 61.5507 270.158C60.9347 268.637 60.1745 267.192 59.2915 265.843C58.4014 264.481 57.3773 263.208 56.2418 262.045C55.1073 260.884 53.8645 259.836 52.535 258.924C51.2172 258.02 49.8066 257.241 48.3215 256.609C46.8692 255.992 45.3447 255.513 43.7692 255.193C42.2349 254.88 40.6455 254.716 39.0193 254.716H20.4663C19.4925 254.716 17.8631 254.422 16.1742 253.656C14.9417 253.097 13.6681 252.282 12.5799 251.143C11.6949 250.216 10.932 249.075 10.4089 247.684C9.95105 246.464 9.68052 245.056 9.68052 243.442V240.201ZM113.241 275.582C113.241 276.93 113.132 278.391 112.915 279.961L112.866 280.316L79.0391 280.421C79.3625 282.019 79.8835 283.484 80.6007 284.815C81.3897 286.277 82.4168 287.582 83.6797 288.727C86.1976 291.009 89.4326 292.15 93.3838 292.15C95.6486 292.15 97.8421 291.746 99.9622 290.94C102.093 290.13 104.156 288.912 106.149 287.288L106.454 287.04L111.906 292.892L111.623 293.171C109.268 295.497 106.53 297.242 103.411 298.406C100.301 299.567 96.8155 300.148 92.9567 300.148C89.4881 300.148 86.3357 299.611 83.5026 298.539C80.6623 297.464 78.1433 295.85 75.9473 293.699C73.7512 291.548 72.1034 289.101 71.0059 286.36C69.9099 283.622 69.3611 280.591 69.3611 277.269C69.3611 273.951 69.896 270.93 70.9658 268.209C72.0377 265.482 73.6444 263.06 75.785 260.946C77.9257 258.832 80.3686 257.245 83.1119 256.187C85.8495 255.131 88.8828 254.603 92.2088 254.603C98.5906 254.603 103.692 256.489 107.511 260.261C109.423 262.148 110.857 264.374 111.814 266.937C112.764 269.487 113.241 272.37 113.241 275.582ZM92.2088 262.6C90.5769 262.6 89.062 262.831 87.6667 263.289C86.2746 263.747 84.9897 264.438 83.8172 265.357C82.6458 266.276 81.6715 267.365 80.8964 268.625C80.2018 269.753 79.6643 271.021 79.286 272.427H104.003C103.748 270.978 103.323 269.678 102.731 268.531C102.079 267.269 101.222 266.19 100.162 265.295C99.1003 264.398 97.9073 263.725 96.586 263.276C95.26 262.826 93.8001 262.6 92.2088 262.6ZM156.314 240.118H165.704V299.163L155.896 299.164V293.837C154.209 295.79 152.272 297.291 150.087 298.339C147.572 299.545 144.733 300.148 141.574 300.148C138.495 300.148 135.654 299.604 133.055 298.518C130.456 297.432 128.103 295.805 126.001 293.639C123.897 291.472 122.317 289.029 121.265 286.315C120.214 283.605 119.688 280.624 119.688 277.375C119.688 274.126 120.214 271.145 121.265 268.435C122.317 265.721 123.896 263.279 126.001 261.111C128.104 258.945 130.456 257.317 133.056 256.232C135.655 255.146 138.495 254.603 141.574 254.603C144.733 254.603 147.572 255.205 150.087 256.411C152.273 257.459 154.209 258.96 155.896 260.913V240.118H156.314ZM142.749 291.095C144.619 291.095 146.353 290.779 147.948 290.15C149.545 289.519 151.01 288.571 152.341 287.309C153.666 286.051 154.661 284.588 155.324 282.92C155.99 281.247 156.324 279.362 156.324 277.269C156.324 275.211 155.99 273.358 155.326 271.713C154.664 270.074 153.669 268.632 152.342 267.39C151.01 266.143 149.554 265.208 147.977 264.587C146.4 263.966 144.692 263.655 142.856 263.655C140.986 263.655 139.26 263.962 137.681 264.575C136.103 265.188 134.666 266.109 133.372 267.336C132.084 268.557 131.116 270.002 130.47 271.668C129.821 273.343 129.496 275.246 129.496 277.375C129.496 279.504 129.821 281.407 130.47 283.082C131.115 284.747 132.083 286.192 133.372 287.414C134.668 288.643 136.097 289.564 137.656 290.176C139.215 290.789 140.913 291.095 142.749 291.095ZM183.867 276.109V299.163H174.059V276.109C174.059 272.862 174.549 269.931 175.527 267.319C176.508 264.699 177.982 262.398 179.947 260.422C181.911 258.447 184.187 256.964 186.77 255.976C189.348 254.99 192.229 254.497 195.412 254.497C201.793 254.497 206.933 256.473 210.824 260.424C212.77 262.4 214.231 264.699 215.203 267.319C216.172 269.931 216.657 272.862 216.657 276.109V299.163H206.849V276.109C206.849 274.218 206.586 272.522 206.059 271.022C205.537 269.532 204.75 268.226 203.703 267.107C202.659 265.992 201.448 265.155 200.073 264.598C198.693 264.04 197.139 263.76 195.412 263.76C193.686 263.76 192.126 264.041 190.735 264.6C189.35 265.157 188.125 265.994 187.064 267.11C186.001 268.228 185.202 269.533 184.67 271.025C184.135 272.526 183.867 274.221 183.867 276.109ZM262.901 293.699C260.705 295.849 258.214 297.462 255.429 298.537C252.647 299.61 249.573 300.148 246.212 300.148C242.849 300.148 239.781 299.61 237.008 298.537C234.229 297.461 231.751 295.848 229.575 293.699C225.221 289.4 223.044 283.957 223.044 277.375C223.044 270.793 225.221 265.35 229.575 261.051C231.75 258.903 234.238 257.29 237.036 256.213C239.828 255.14 242.922 254.603 246.319 254.603C253.054 254.603 258.6 256.735 262.955 260.999C265.133 263.132 266.767 265.557 267.855 268.272C268.943 270.983 269.487 273.983 269.487 277.269C269.487 280.591 268.939 283.622 267.842 286.36C266.745 289.101 265.097 291.547 262.901 293.699ZM236.739 287.109C237.998 288.404 239.425 289.374 241.017 290.02C242.609 290.666 244.378 290.99 246.319 290.99C248.258 290.99 250.022 290.67 251.609 290.031C253.192 289.395 254.605 288.437 255.844 287.162C257.086 285.886 258.018 284.433 258.638 282.806C259.261 281.177 259.572 279.365 259.572 277.375C259.572 275.386 259.256 273.576 258.625 271.945C257.996 270.319 257.051 268.866 255.792 267.589C254.535 266.314 253.109 265.356 251.515 264.718C249.92 264.08 248.151 263.76 246.212 263.76C242.342 263.76 239.164 265.019 236.684 267.537C235.443 268.796 234.512 270.235 233.892 271.852C233.27 273.473 232.959 275.28 232.959 277.269C232.959 279.26 233.274 281.075 233.905 282.714C234.535 284.349 235.48 285.815 236.739 287.109ZM306.707 254.736H317.155C311.197 269.072 304.728 284.539 298.787 298.882H288.296C282.29 284.551 275.885 269.077 269.904 254.736H280.747L293.61 288.334L306.418 254.736H306.707Z" fill="var(--fill-0, #053B3A)"/>
</g>
</svg>
